<svg width="44" height="42" viewBox="0 0 44 42" fill="none" xmlns="http://www.w3.org/2000/svg">
<g filter="url(#filter0_d_207_3226)">
<path d="M22.2846 27.0389C23.2094 26.9757 24.1264 26.828 25.0242 26.5977C26.1331 26.931 27.3035 27.0065 28.446 26.8183C28.4916 26.8127 28.5375 26.8093 28.5834 26.808C28.991 26.808 29.5258 27.0418 30.306 27.5342V26.7248C30.3064 26.5837 30.3445 26.4454 30.4164 26.3241C30.4884 26.2028 30.5915 26.103 30.7151 26.0351C31.0551 25.8432 31.3692 25.6275 31.6575 25.3879C32.7943 24.4382 33.4357 23.1699 33.4357 21.8286C33.4357 21.3859 33.3655 20.9447 33.2267 20.5239C33.5716 19.8898 33.8462 19.2279 34.0508 18.5383C34.7083 19.5099 35.0619 20.6569 35.0663 21.8286C35.0663 23.6521 34.2071 25.3528 32.7183 26.5962C32.4689 26.8037 32.2084 26.9946 31.9366 27.1689V29.0654C31.9366 29.7171 31.1739 30.0926 30.6362 29.7039C30.1268 29.3291 29.6002 28.978 29.0582 28.6519C28.9017 28.5617 28.7397 28.4811 28.5732 28.4109C28.1209 28.4778 27.6643 28.5115 27.207 28.5117C25.3515 28.5117 23.6361 27.9608 22.2846 27.0389ZM12.4646 23.2474C10.121 21.2851 8.7666 18.6099 8.7666 15.7432C8.7666 9.88714 14.3655 5.20435 21.202 5.20435C28.0399 5.20435 33.6402 9.88568 33.6402 15.7432C33.6402 21.5993 28.0399 26.2806 21.202 26.2806C20.4334 26.2806 19.6761 26.2222 18.93 26.1053C18.6085 26.1798 17.3198 26.9352 15.4642 28.2721C14.7921 28.7571 13.8395 28.2896 13.8395 27.4728V24.2394C13.3583 23.9419 12.8992 23.6099 12.4661 23.2459M18.9753 24.1109C19.0317 24.1109 19.0887 24.1153 19.1462 24.124C19.8183 24.2351 20.5036 24.2911 21.202 24.292C26.9776 24.292 31.5991 20.4275 31.5991 15.7417C31.5991 11.0575 26.9776 7.19289 21.2034 7.19289C15.4292 7.19289 10.8048 11.0604 10.8048 15.7432C10.8048 18.0079 11.886 20.1411 13.7942 21.7381C14.2754 22.1394 14.7994 22.4998 15.3664 22.8193C15.5201 22.9046 15.6485 23.0293 15.7383 23.1804C15.8282 23.3316 15.8763 23.504 15.8777 23.6799V25.5442C17.3461 24.5726 18.3119 24.1109 18.9753 24.1109Z" fill="white"/>
<path d="M16.1623 17.5331C16.5982 17.5331 17.0163 17.3599 17.3246 17.0516C17.6328 16.7434 17.806 16.3253 17.806 15.8893C17.806 15.4534 17.6328 15.0353 17.3246 14.727C17.0163 14.4188 16.5982 14.2456 16.1623 14.2456C15.7263 14.2456 15.3083 14.4188 15 14.727C14.6917 15.0353 14.5186 15.4534 14.5186 15.8893C14.5186 16.3253 14.6917 16.7434 15 17.0516C15.3083 17.3599 15.7263 17.5331 16.1623 17.5331ZM21.5055 17.5331C21.9414 17.5331 22.3595 17.3599 22.6678 17.0516C22.976 16.7434 23.1492 16.3253 23.1492 15.8893C23.1492 15.4534 22.976 15.0353 22.6678 14.727C22.3595 14.4188 21.9414 14.2456 21.5055 14.2456C21.0696 14.2456 20.6515 14.4188 20.3432 14.727C20.0349 15.0353 19.8618 15.4534 19.8618 15.8893C19.8618 16.3253 20.0349 16.7434 20.3432 17.0516C20.6515 17.3599 21.0696 17.5331 21.5055 17.5331ZM26.8472 17.5331C27.2832 17.5331 27.7013 17.3599 28.0095 17.0516C28.3178 16.7434 28.491 16.3253 28.491 15.8893C28.491 15.4534 28.3178 15.0353 28.0095 14.727C27.7013 14.4188 27.2832 14.2456 26.8472 14.2456C26.4113 14.2456 25.9932 14.4188 25.685 14.727C25.3767 15.0353 25.2035 15.4534 25.2035 15.8893C25.2035 16.3253 25.3767 16.7434 25.685 17.0516C25.9932 17.3599 26.4113 17.5331 26.8472 17.5331Z" fill="white"/>
</g>
<defs>
<filter id="filter0_d_207_3226" x="-0.000463009" y="0" width="43.833" height="43.8327" filterUnits="userSpaceOnUse" color-interpolation-filters="sRGB">
<feFlood flood-opacity="0" result="BackgroundImageFix"/>
<feColorMatrix in="SourceAlpha" type="matrix" values="0 0 0 0 0 0 0 0 0 0 0 0 0 0 0 0 0 0 127 0" result="hardAlpha"/>
<feOffset dy="4.38328"/>
<feGaussianBlur stdDeviation="2.19164"/>
<feComposite in2="hardAlpha" operator="out"/>
<feColorMatrix type="matrix" values="0 0 0 0 0 0 0 0 0 0 0 0 0 0 0 0 0 0 0.25 0"/>
<feBlend mode="normal" in2="BackgroundImageFix" result="effect1_dropShadow_207_3226"/>
<feBlend mode="normal" in="SourceGraphic" in2="effect1_dropShadow_207_3226" result="shape"/>
</filter>
</defs>
</svg>
